<?xml version="1.0" encoding="UTF-8" standalone="no"?>
<svg
   xmlns:dc="http://purl.org/dc/elements/1.1/"
   xmlns:cc="http://creativecommons.org/ns#"
   xmlns:rdf="http://www.w3.org/1999/02/22-rdf-syntax-ns#"
   xmlns:svg="http://www.w3.org/2000/svg"
   xmlns="http://www.w3.org/2000/svg"
   xml:space="preserve"
   enable-background="new -1 -14.374 288 120.541"
   viewBox="-1 -14.374 32 32"
   height="32"
   width="32"
   y="0px"
   x="0px"
   id="svg2"
   version="1.1"><metadata
     id="metadata7596"><rdf:RDF><cc:Work
         rdf:about=""><dc:format>image/svg+xml</dc:format><dc:type
           rdf:resource="http://purl.org/dc/dcmitype/StillImage" /><dc:title></dc:title></cc:Work></rdf:RDF></metadata><defs
     id="defs7594" /><g
     transform="matrix(1.25,0,0,-1.25,9.9591569,61.71156)"
     id="g10"><path
       style="fill:#b5d1ea;fill-opacity:1"
       id="path2834"
       d="m -7.0220458,55.353906 -0.042502,-0.0425 0,-0.418928 c 0,-0.115051 0.054961,-0.175877 0.1697691,-0.175877 0.546929,-0.05765 0.916515,-0.172213 1.1107114,-0.351999 0.2015264,-0.1727 0.3967005,-0.515905 0.5767308,-1.019354 L 0.55214381,41.304274 C 0.6745249,40.958872 0.8401417,40.782262 1.0558357,40.782262 c 0.2159371,0 0.3964556,0.176365 0.5400889,0.522012 l 2.3306127,4.830998 2.3122932,-4.830998 c 0.1223801,-0.345402 0.2938609,-0.522012 0.509799,-0.522012 0.215693,0 0.3901043,0.176365 0.5339808,0.522012 l 5.7594827,11.943998 c 0.180027,0.467539 0.407447,0.824422 0.673706,1.062102 0.266012,0.244516 0.671752,0.377889 1.226009,0.406712 0.122136,0 0.188089,0.06083 0.188089,0.175879 l 0,0.418929 -0.04861,0.0425 -2.039197,-0.0425 c -0.575753,0 -1.384298,0.01369 -2.427592,0.0425 l -0.0425,-0.0425 0,-0.418929 c 0,-0.115052 0.06082,-0.175879 0.175878,-0.175879 l 0.351996,-0.01833 c 0.446043,-0.0215 0.756027,-0.123603 0.928484,-0.303388 0.18003,-0.172702 0.193708,-0.459967 0.0425,-0.855693 l -4.7213185,-9.680556 -0.085254,0 -2.2697898,4.491212 2.3609026,4.897684 c 0.1797862,0.467538 0.4013413,0.824425 0.6675988,1.062101 0.2662594,0.244518 0.6781032,0.377891 1.2318731,0.406714 0.1223802,0 0.1819833,0.06083 0.1819833,0.175879 l 0,0.418926 -0.042502,0.0425 -2.0391951,-0.0425 c -0.5757535,0 -1.3845423,0.01369 -2.4275896,0.0425 l -0.042502,-0.0425 0,-0.418926 c 0,-0.115052 0.054959,-0.175879 0.170015,-0.175879 L 5.4131824,54.6985 C 5.8592251,54.677 6.1689643,54.574897 6.3416667,54.395113 6.5216951,54.222411 6.535131,53.935143 6.3841687,53.539422 L 4.411665,49.497451 2.2874633,53.691379 c -0.1223811,0.330992 -0.1223811,0.557436 0,0.679572 0.1294648,0.129464 0.4592345,0.231571 0.9770938,0.303633 l 0.3764252,0.0425 c 0.1150532,0.0215 0.170015,0.08232 0.170015,0.175879 l 0,0.418929 -0.042502,0.0425 -2.512597,-0.0425 c -0.57575265,0 -1.43999237,0.01369 -2.5914974,0.0425 l -0.042503,-0.0425 0,-0.418929 c 0,-0.115052 0.054962,-0.175879 0.1700141,-0.175879 0.54692843,-0.05765 0.91627013,-0.172212 1.11071193,-0.351997 0.20152558,-0.172458 0.39645569,-0.515906 0.57648501,-1.019354 l 2.87656476,-6.014501 -1.6930589,-3.471614 -0.085005,0 -4.976584,9.832005 c -0.122381,0.330992 -0.122381,0.557435 0,0.679571 0.129465,0.129465 0.452883,0.231572 0.9709872,0.303633 l 0.3825322,0.0425 c 0.1150528,0.0215 0.1697701,0.08232 0.1697701,0.175876 l 0,0.41893 -0.042259,0.0425 -2.5125966,-0.04299 c -0.5757532,0 -1.4404806,0.01343 -2.5914989,0.04226 z" /></g></svg>