<?xml version="1.0" encoding="UTF-8" standalone="no"?>
<!-- Generator: Adobe Illustrator 16.0.0, SVG Export Plug-In . SVG Version: 6.00 Build 0)  -->

<svg
   xmlns:dc="http://purl.org/dc/elements/1.1/"
   xmlns:cc="http://creativecommons.org/ns#"
   xmlns:rdf="http://www.w3.org/1999/02/22-rdf-syntax-ns#"
   xmlns:svg="http://www.w3.org/2000/svg"
   xmlns="http://www.w3.org/2000/svg"
   xmlns:sodipodi="http://sodipodi.sourceforge.net/DTD/sodipodi-0.dtd"
   xmlns:inkscape="http://www.inkscape.org/namespaces/inkscape"
   version="1.1"
   id="svg2"
   sodipodi:docname="icon.svg"
   inkscape:version="0.91 r13725"
   x="0px"
   y="0px"
   width="150"
   height="150"
   viewBox="-1 -14.374 150 150"
   enable-background="new -1 -14.374 288 120.541"
   xml:space="preserve"
   inkscape:export-filename="/home/m/auricio/make/firefox/wikipedia/extension/icons/icon@2x.png"
   inkscape:export-xdpi="57.599998"
   inkscape:export-ydpi="57.599998"><metadata
     id="metadata7596"><rdf:RDF><cc:Work
         rdf:about=""><dc:format>image/svg+xml</dc:format><dc:type
           rdf:resource="http://purl.org/dc/dcmitype/StillImage" /><dc:title></dc:title></cc:Work></rdf:RDF></metadata><defs
     id="defs7594" /><sodipodi:namedview
     inkscape:current-layer="g10"
     inkscape:window-maximized="0"
     inkscape:window-y="23"
     inkscape:window-x="0"
     fit-margin-bottom="0"
     fit-margin-right="0"
     inkscape:window-height="745"
     inkscape:window-width="1366"
     inkscape:pageshadow="2"
     inkscape:pageopacity="0"
     inkscape:cy="71.377356"
     inkscape:cx="29.50429"
     inkscape:zoom="2.9941331"
     fit-margin-left="0"
     fit-margin-top="0"
     showgrid="false"
     guidetolerance="10"
     gridtolerance="10"
     objecttolerance="10"
     borderopacity="1"
     pagecolor="#ffffff"
     bordercolor="#666666"
     id="namedview4" /><g
     id="g10"
     transform="matrix(1.25,0,0,-1.25,9.9591569,179.71156)"
     inkscape:groupmode="layer"
     inkscape:label="ink_ext_XXXXXX"><path
       d="m 3.1655364,126.94641 -0.1848042,-0.18481 0,-1.82155 c 0,-0.50025 0.2389756,-0.76473 0.7381746,-0.76473 2.3781077,-0.25066 3.9851081,-0.7488 4.8294951,-1.53053 0.876259,-0.75092 1.7248971,-2.24321 2.5076891,-4.43226 L 36.098942,65.857061 c 0.532126,-1.50185 1.252248,-2.269768 2.190108,-2.269768 0.93892,0 1.723833,0.766857 2.348365,2.269768 L 50.771178,86.862766 60.82528,65.857061 c 0.532123,-1.50185 1.277739,-2.269768 2.216663,-2.269768 0.937855,0 1.696217,0.766857 2.321806,2.269768 l 25.042862,51.933809 c 0.782782,2.03291 1.771626,3.58468 2.929348,4.61814 1.156651,1.06318 2.920851,1.6431 5.330821,1.76843 0.531062,0 0.817837,0.26448 0.817837,0.76474 l 0,1.82155 -0.211355,0.18481 -8.866651,-0.18481 c -2.503438,0 -6.019079,0.0595 -10.555437,0.18481 l -0.184804,-0.18481 0,-1.82155 c 0,-0.50026 0.264466,-0.76474 0.764735,-0.76474 l 1.53052,-0.0797 c 1.939443,-0.0935 3.28729,-0.53744 4.037149,-1.31916 0.782792,-0.75093 0.842266,-1.99999 0.184814,-3.72065 l -20.528813,-42.092121 -0.370679,0 -9.869294,19.528285 10.265463,21.295666 c 0.781732,2.03291 1.745076,3.58469 2.902796,4.61813 1.157723,1.06319 2.948467,1.64311 5.356316,1.76844 0.532123,0 0.791286,0.26448 0.791286,0.76474 l 0,1.82154 -0.184814,0.18482 -8.866644,-0.18482 c -2.503439,0 -6.020141,0.0595 -10.555428,0.18482 l -0.184813,-0.18482 0,-1.82154 c 0,-0.50026 0.238985,-0.76474 0.739244,-0.76474 l 1.55708,-0.0797 c 1.939443,-0.0935 3.286221,-0.53744 4.03715,-1.31916 0.782783,-0.75093 0.841205,-2 0.184804,-3.72064 l -8.576679,-17.57493 -9.236264,18.23566 c -0.532126,1.43919 -0.532126,2.42379 0,2.95485 0.562928,0.56293 1.996801,1.0069 4.248512,1.32023 l 1.636739,0.1848 c 0.500262,0.0935 0.739241,0.35794 0.739241,0.76474 l 0,1.82155 -0.18481,0.18481 -10.925048,-0.18481 c -2.503436,0 -6.261245,0.0595 -11.268116,0.18481 l -0.18481,-0.18481 0,-1.82155 c 0,-0.50026 0.238979,-0.76474 0.73924,-0.76474 2.378105,-0.25066 3.984042,-0.7488 4.829496,-1.53052 0.876257,-0.74987 1.723835,-2.24322 2.506623,-4.43227 l 12.507618,-26.151707 -7.361608,-15.094961 -0.369621,0 -21.638733,42.750638 c -0.532126,1.43919 -0.532126,2.42379 0,2.95485 0.562928,0.56293 1.969185,1.0069 4.221959,1.32023 l 1.663292,0.18481 c 0.500262,0.0935 0.738179,0.35793 0.738179,0.76473 l 0,1.82155 -0.183748,0.18481 -10.925046,-0.18694 c -2.503438,0 -6.2633673,0.0584 -11.2681216,0.18375 z"
       inkscape:connector-curvature="0"
       id="path2834"
       style="fill:#b5d1ef;fill-opacity:0.94117647" /></g></svg>