<?xml version="1.0" encoding="UTF-8" standalone="no"?>
<!-- Created with Inkscape (http://www.inkscape.org/) -->

<svg
   xmlns:dc="http://purl.org/dc/elements/1.1/"
   xmlns:cc="http://creativecommons.org/ns#"
   xmlns:rdf="http://www.w3.org/1999/02/22-rdf-syntax-ns#"
   xmlns:svg="http://www.w3.org/2000/svg"
   xmlns="http://www.w3.org/2000/svg"
   xmlns:sodipodi="http://sodipodi.sourceforge.net/DTD/sodipodi-0.dtd"
   xmlns:inkscape="http://www.inkscape.org/namespaces/inkscape"
   width="84.666664mm"
   height="84.666664mm"
   viewBox="0 0 299.99999 299.99999"
   id="svg2"
   version="1.1"
   inkscape:version="0.91 r13725"
   sodipodi:docname="icon.svg"
   inkscape:export-filename="/home/m/auricio/make/chrome/wikipedia-toolbar/extension/src/icons/96.png"
   inkscape:export-xdpi="28.799999"
   inkscape:export-ydpi="28.799999">
  <defs
     id="defs4" />
  <sodipodi:namedview
     id="base"
     pagecolor="#ffffff"
     bordercolor="#666666"
     borderopacity="1.0"
     inkscape:pageopacity="0.0"
     inkscape:pageshadow="2"
     inkscape:zoom="0.70710678"
     inkscape:cx="114.48741"
     inkscape:cy="30.562484"
     inkscape:document-units="px"
     inkscape:current-layer="layer1"
     showgrid="false"
     inkscape:window-width="1366"
     inkscape:window-height="745"
     inkscape:window-x="0"
     inkscape:window-y="23"
     inkscape:window-maximized="0"
     fit-margin-top="0"
     fit-margin-left="0"
     fit-margin-right="0"
     fit-margin-bottom="0" />
  <metadata
     id="metadata7">
    <rdf:RDF>
      <cc:Work
         rdf:about="">
        <dc:format>image/svg+xml</dc:format>
        <dc:type
           rdf:resource="http://purl.org/dc/dcmitype/StillImage" />
        <dc:title></dc:title>
      </cc:Work>
    </rdf:RDF>
  </metadata>
  <g
     inkscape:label="Layer 1"
     inkscape:groupmode="layer"
     id="layer1"
     transform="translate(-119.32508,-276.23172)">
    <g
       id="g7880"
       transform="matrix(1.1363585,0,0,1.1363585,-784.25804,-572.89409)"
       style="fill:#b5d1ef;fill-opacity:0.94117647">
      <path
         id="rect7411-76"
         transform="translate(119.32508,276.23172)"
         d="m 72.884766,46.287109 c -15.59986,7e-5 -28.246024,12.646234 -28.246094,28.246094 7e-5,15.59986 12.646234,28.246027 28.246094,28.246097 0.0879,-0.003 0.17579,-0.006 0.263672,-0.01 l 0,0.0137 35.626952,0 0,0.0371 91.75977,0 0,0.002 26.30468,0 0,0.006 0.11133,-0.006 c 5.23163,-8e-5 9.47274,4.24102 9.47266,9.47265 9e-5,5.23164 -4.24102,9.47274 -9.47266,9.47266 -0.0371,-0.001 -0.0742,-0.002 -0.11133,-0.004 l 0,0.004 -26.29882,0 0.002,0.004 -9.31836,0 0,-0.002 -118.076172,0 0,0.0137 c -0.0879,-0.005 -0.175762,-0.01 -0.263672,-0.0137 -15.59986,7e-5 -28.246024,12.64624 -28.246094,28.24609 7e-5,15.59986 12.646234,28.24603 28.246094,28.2461 0.0879,-0.003 0.17579,-0.006 0.263672,-0.01 l 0,0.0137 118.076172,0 0,-0.0117 14.37109,0 0,0.006 0.11133,-0.006 c 5.23163,-8e-5 9.47274,4.24102 9.47266,9.47265 9e-5,5.23164 -4.24102,9.47274 -9.47266,9.47266 -0.0371,-0.001 -0.0742,-0.002 -0.11133,-0.004 l 0,0.004 -26.29882,0 0.002,0.004 -91.76758,0 0,0.0137 -14.382812,0 0,0.0137 c -0.0879,-0.005 -0.175762,-0.01 -0.263672,-0.0137 -15.59986,7e-5 -28.246024,12.64623 -28.246094,28.24609 7e-5,15.59986 12.646224,28.24602 28.246094,28.24609 0.0879,-0.003 0.17579,-0.006 0.263672,-0.01 l 0,0.0137 64.076172,0 a 9.3865004,9.3865004 0 0 0 0.0156,0 9.3865004,9.3865004 0 0 0 9.38672,-9.38672 9.3865004,9.3865004 0 0 0 -9.38672,-9.38672 9.3865004,9.3865004 0 0 0 -0.0156,0 l -37.767579,0 0.002,-0.004 -26.298828,0 0,-0.004 c -0.0371,0.002 -0.0742,0.003 -0.111328,0.004 -5.23164,9e-5 -9.472746,-4.24102 -9.472656,-9.47266 -9e-5,-5.23164 4.241026,-9.47275 9.472656,-9.47266 l 0.111328,0.006 0,-0.006 26.304688,0 0,-0.002 89.759769,0 0,-0.0117 16.38281,0 0,-0.0137 c 0.0879,0.004 0.17577,0.007 0.26367,0.01 15.59986,-7e-5 28.24603,-12.64624 28.2461,-28.2461 -7e-5,-15.59986 -12.64624,-28.24602 -28.2461,-28.24609 -0.0879,0.004 -0.17577,0.009 -0.26367,0.0137 l 0,-0.0137 -118.076173,0 0,0.008 -14.371094,0 0,-0.004 c -0.0371,0.002 -0.0742,0.003 -0.111328,0.004 -5.23164,8e-5 -9.472746,-4.24101 -9.472656,-9.47266 -8e-5,-5.23162 4.241026,-9.47273 9.472656,-9.47265 l 0.111328,0.006 0,-0.006 26.304688,0 0,-0.002 9.310549,0 0,0.004 118.07617,0 0,-0.0137 c 0.0879,0.004 0.17577,0.007 0.26367,0.01 15.59986,-7e-5 28.24603,-12.64624 28.2461,-28.2461 -7e-5,-15.599854 -12.64624,-28.246022 -28.2461,-28.246092 -0.0879,0.0037 -0.17577,0.0087 -0.26367,0.01367 l 0,-0.01367 -35.62695,0 0,-0.03906 -91.767582,0 0.002,-0.0039 -26.298828,0 0,-0.0039 c -0.0371,0.002 -0.0742,0.0029 -0.111328,0.0039 -5.23164,8e-5 -9.472746,-4.241016 -9.472656,-9.472656 -8e-5,-5.23163 4.241026,-9.472736 9.472656,-9.472656 l 0.111328,0.0059 0,-0.0059 26.304688,0 0,-0.002 65.787102,0 a 9.3865004,9.3865004 0 0 0 0.0391,0.002 9.3865004,9.3865004 0 0 0 9.38671,-9.386719 9.3865004,9.3865004 0 0 0 -9.38671,-9.386719 l -92.142578,0 0,0.01367 c -0.0879,-0.005 -0.175762,-0.01 -0.263672,-0.01367 z"
         style="opacity:1;fill:#b5d1ef;fill-opacity:0.94117647;stroke:none;stroke-width:0.2;stroke-miterlimit:4;stroke-dasharray:none;stroke-dashoffset:0;stroke-opacity:1"
         inkscape:connector-curvature="0" />
      <circle
         r="9.3865004"
         cy="520.55817"
         cx="286.72391"
         id="path7712-7"
         style="opacity:1;fill:#b5d1ef;fill-opacity:0.94117647;stroke:none;stroke-width:0.2;stroke-miterlimit:4;stroke-dasharray:none;stroke-dashoffset:0;stroke-opacity:1" />
      <circle
         r="9.3865004"
         cy="520.55817"
         cx="316.88239"
         id="path7712-4"
         style="opacity:1;fill:#b5d1ef;fill-opacity:0.94117647;stroke:none;stroke-width:0.2;stroke-miterlimit:4;stroke-dasharray:none;stroke-dashoffset:0;stroke-opacity:1" />
    </g>
    <path
       sodipodi:nodetypes="cccccccccccccccccccscccccccccccccccccccsccccccccccccccccccccccccscccccccccccccccccccsccccccccc"
       inkscape:connector-curvature="0"
       id="rect7411-76-7"
       d="m 312.00603,317.08186 c -6.66816,2.5e-4 -12.07371,5.4058 -12.07396,12.07395 -9.1e-4,6.66902 5.40493,12.07591 12.07396,12.07617 0.0258,-6.6e-4 0.0516,-9.1e-4 0.0774,-0.002 5e-5,8.2e-4 -8e-5,9.1e-4 0,0.002 10.23788,0.14053 29.94301,0.0486 7.93756,0.0482 l 0,0.009 0.1437,-0.009 c 6.72977,-10e-5 12.18462,5.45696 12.18451,12.18671 1.1e-4,6.72978 -5.45473,12.18461 -12.18451,12.1845 -0.0478,-9.1e-4 -0.096,-0.002 -0.1437,-0.005 l 0,0.005 -33.82963,0 0.002,0.005 -11.98773,0 0,-0.002 -69.12746,0 0,0.0177 c -0.11308,-0.006 -0.2274,-0.013 -0.34049,-0.0177 -20.06703,1e-4 -36.33451,16.2676 -36.3346,36.33462 9e-5,20.06705 16.26757,36.33454 36.3346,36.33463 0.11309,-0.004 0.22744,-0.005 0.34049,-0.0113 l 0,0.0177 122.52183,0 0,-0.0155 13.95989,0 0,0.006 0.1415,-0.006 c 6.72976,-1.1e-4 12.18681,5.45473 12.18671,12.1845 1.1e-4,6.72978 -5.45694,12.1846 -12.18671,12.1845 -0.0478,-9.1e-4 -0.0937,-0.002 -0.1415,-0.005 l 0,0.005 -29.30162,0 0.002,0.006 -73.10386,0 0,0.0177 -13.03258,0 0,0.0177 c -0.11308,-0.006 -0.22739,-0.0129 -0.34048,-0.0177 -26.90278,-0.91134 -43.12654,16.26757 -43.12663,36.33461 9e-5,20.06705 16.26757,36.33453 36.33462,36.33462 0.11308,-0.004 0.22744,-0.008 0.34048,-0.0132 l 0,0.0177 7.53345,0 0.02,0 c 6.66873,1.5e-4 12.07632,-5.40521 12.07617,-12.07395 1.5e-4,-6.66874 -5.40744,-12.07632 -12.07617,-12.07616 l -0.02,0 -3.68036,0 0.002,-0.005 -3.83982,0 0,-0.005 c -0.0477,0.002 -0.096,0.004 -0.14371,0.005 -6.72978,1.3e-4 -12.18461,-5.45472 -12.18451,-12.1845 -1e-4,-6.72977 5.45474,-12.18682 12.18451,-12.18671 l 0.14371,0.009 0,-0.009 28.36766,0 0,-0.002 77.31351,0 0,-0.0155 16.54669,0 0,-0.0177 c 0.11308,0.005 0.2252,0.009 0.33827,0.0132 20.06704,-9e-5 36.33453,-16.26758 36.33462,-36.33462 -9e-5,-20.06704 -16.26758,-36.33453 -36.33462,-36.33462 -0.11308,0.005 -0.22521,0.0117 -0.33827,0.0177 l 0,-0.0177 -117.99604,0 0,0.0113 -18.48569,0 0,-0.006 c -0.0477,0.002 -0.096,0.005 -0.14371,0.006 -6.72977,10e-5 -12.18461,-5.45693 -12.18449,-12.18672 -1e-4,-6.72974 5.45473,-12.1846 12.18449,-12.1845 l 0.14371,0.006 0,-0.006 29.30825,0 0,-0.002 11.97668,0 0,0.005 73.65768,0 0,-0.0177 c 0.11309,0.005 0.22519,0.009 0.33827,0.0132 20.06704,-9e-5 36.33453,-16.26758 36.33462,-36.33462 -9e-5,-20.06703 -16.26758,-36.33452 -36.33462,-36.33462 -0.11309,0.005 -0.2252,0.0113 -0.33827,0.0177 l 0,-0.0177 -0.43393,0 0,-0.0509 -7.51911,0 c -3e-4,0.002 3e-4,0.003 0,0.005 -0.0258,-0.002 -0.0516,-0.003 -0.0774,-0.005 z"
       style="opacity:1;fill:#b5d1ef;fill-opacity:0.94117647;stroke:none;stroke-width:2.20000005;stroke-miterlimit:4;stroke-dasharray:none;stroke-dashoffset:0;stroke-opacity:1" />
    <circle
       style="opacity:1;fill:#b5d1ef;fill-opacity:0.94117647;stroke:none;stroke-width:4.84002209;stroke-miterlimit:4;stroke-dasharray:none;stroke-dashoffset:0;stroke-opacity:1"
       id="path7712-4-9-0"
       cx="269.32507"
       cy="325.26706"
       r="19.499044" />
    <circle
       style="opacity:1;fill:#b5d1ef;fill-opacity:0.94117647;stroke:none;stroke-width:4.84002209;stroke-miterlimit:4;stroke-dasharray:none;stroke-dashoffset:0;stroke-opacity:1"
       id="path7712-4-9-0-9"
       cx="269.32507"
       cy="523.05304"
       r="19.499044" />
  </g>
</svg>
